<svg xmlns="http://www.w3.org/2000/svg" width="42.917" height="45.464" viewBox="0 0 42.917 42.908">
  <path id="instagram-brands" d="M21.389,42.278a11,11,0,1,0,11,11A10.984,10.984,0,0,0,21.389,42.278Zm0,18.153a7.152,7.152,0,1,1,7.152-7.152,7.165,7.165,0,0,1-7.152,7.152Zm14.017-18.6a2.566,2.566,0,1,1-2.566-2.566A2.56,2.56,0,0,1,35.406,41.828Zm7.286,2.6c-.163-3.437-.948-6.482-3.466-8.99s-5.553-3.294-8.99-3.466c-3.543-.2-14.161-.2-17.7,0-3.428.163-6.472.948-8.99,3.456S.248,40.985.076,44.423c-.2,3.543-.2,14.161,0,17.7.163,3.437.948,6.482,3.466,8.99s5.553,3.294,8.99,3.466c3.543.2,14.161.2,17.7,0,3.437-.163,6.482-.948,8.99-3.466s3.294-5.553,3.466-8.99c.2-3.543.2-14.151,0-17.694ZM38.115,65.927a7.241,7.241,0,0,1-4.079,4.079c-2.824,1.12-9.527.862-12.648.862s-9.833.249-12.648-.862a7.241,7.241,0,0,1-4.079-4.079C3.542,63.1,3.8,56.4,3.8,53.279s-.249-9.833.862-12.648a7.241,7.241,0,0,1,4.079-4.079c2.824-1.12,9.527-.862,12.648-.862s9.833-.249,12.648.862a7.241,7.241,0,0,1,4.079,4.079c1.12,2.824.862,9.527.862,12.648S39.235,63.112,38.115,65.927Z" transform="translate(0.075 -31.825)" fill="#222"/>
</svg>
